<?xml version="1.0" encoding="utf-8"?>
<!-- Generator: Adobe Illustrator 24.0.1, SVG Export Plug-In . SVG Version: 6.00 Build 0)  -->
<svg version="1.1" id="Calque_1" xmlns="http://www.w3.org/2000/svg" xmlns:xlink="http://www.w3.org/1999/xlink" x="0px" y="0px"
	 viewBox="0 0 200 100" style="enable-background:new 0 0 200 100;" xml:space="preserve">
<g>
	<path d="M127.6,0.8c-0.4,0.7-0.6,1.2-0.8,1.4l-4.2,7.5c-1.4,2.6-2.8,6-4,10l-0.1,0.3l-0.6-0.4l-0.2-0.8c-1.2-4.7-2.9-8-5.1-9.8
		c-2.2-1.8-5.6-2.7-10.2-2.7c-1.9,0-3.7,0.1-5.6,0.3H96v67.4l7.3,6.8H74.9l8.7-7.3V11.4l-4.4-0.1c-4.3,0-7.3,0.8-9.1,2.5
		s-2.9,4.6-3.2,8.9h-1.6c0.5-4.9,1.7-8.2,3.8-10.1c2.1-1.9,5.4-2.9,10.2-2.9l3.7,0.1h0.7V6.7c-2.1-0.3-4.1-0.4-6-0.4
		c-5.3,0-9.2,1.1-11.6,3.3c-2.4,2.2-3.7,5.8-3.9,11h-0.8c-1.8-5.8-4.5-12.2-8.3-19.3l-0.4-0.6H127.6z M114.9,14.4
		c-3.2-2.1-6.9-3.1-11.2-3.1c-0.9,0-1.9,0.1-3,0.2l0.3,62.5l9.9,11.7H79.1l-1.4-1.7h29.8l-8.3-9.5V9.6l3.4-0.1c4,0,6.9,0.3,8.6,1
		C112.7,11.2,113.9,12.5,114.9,14.4z M131.5,4.7c-2.9,3.6-5.9,9.7-9,18.1l-0.3,0.6l-1.4-1.2l0.2-0.6c3.1-8.6,6-14.6,8.9-17.9
		l0.3-0.4L131.5,4.7z"/>
	<path d="M80.7,58.1c-2.3,0.8-4.3,2.2-5.9,4.2l1.3,0.6c1.1-1.4,2.3-2.4,3.8-3.1C80.1,59.2,80.3,58.7,80.7,58.1z"/>
	<path d="M136.8,21.8l8.6-8.3h-28.7l7.6,7V49c-3.1,0.4-6.8,0.6-11.1,0.6c-3,0-6.1-0.1-9.3-0.4l-2.1-0.2v-0.2c-0.2,0-0.3,0-0.4,0
		c-0.4,0-0.8,0-1.2-0.1V49c-1.3-0.1-2.4-0.2-3.4-0.4v-0.1c-0.3,0-0.6,0-0.9,0c-0.2,0-0.3,0-0.4,0c-0.2,0-0.4,0-0.6,0
		c-1.1,0-2.1-0.2-3-0.5c-0.1,0-0.3,0-0.4,0c-0.3,0-0.6,0-0.9,0c-0.3,0-0.7,0-1,0c-0.1,0-0.2,0-0.3,0c-0.7,0.2-1.4,0.3-2.2,0.3
		c-0.1,0-0.2,0-0.2,0c-0.7,0.3-1.5,0.5-2.4,0.5V49c-5.5,1.1-9.5,4.6-11.9,10.6l0.9,0.6c2.7-3.5,6.4-5.3,11-5.3v0.3
		c0.8-0.3,1.6-0.4,2.6-0.4c0.8,0,1.5,0.1,2.1,0.3h0.8c0.7,0,1.4,0.1,2.1,0.3c0.3,0,0.5,0,0.8,0c0.1,0,0.2,0,0.2,0c0.1,0,0.2,0,0.3,0
		c0.7,0,1.4,0.1,2,0.3c0.5,0,1.1,0,1.6,0.2v-0.2c0.7,0,1.2,0.1,1.4,0.1l6.3,0.6c1.3,0.1,3.3,0.2,6.1,0.2c5.2,0,9.7-0.3,13.6-0.9v2.2
		c-2.9,1.1-6.4,1.6-10.4,1.6c-2.4,0-6.4-0.2-11.8-0.6c0.3,0.4,0.6,0.9,0.8,1.4c3.7,0.4,7.2,0.5,10.7,0.5c3.7,0,7.3-0.4,10.8-1.2V86
		l-8.5,7.3h28.6l-7.5-6.7L136.8,21.8L136.8,21.8z"/>
	<polygon points="141.7,86.5 141.7,23.1 148,17 147,15.7 140.1,22.5 140.1,87.3 148.5,96.7 118.2,96.7 119.7,98.3 152,98.3 	"/>
</g>
</svg>
