<?xml version="1.0" encoding="utf-8"?>
<!-- Generator: Adobe Illustrator 24.0.1, SVG Export Plug-In . SVG Version: 6.00 Build 0)  -->
<svg version="1.1" id="Calque_1" xmlns="http://www.w3.org/2000/svg" xmlns:xlink="http://www.w3.org/1999/xlink" x="0px" y="0px"
	 viewBox="0 0 200 100" style="enable-background:new 0 0 200 100;" xml:space="preserve">
<style type="text/css">
	.st0{fill:url(#SVGID_1_);}
	.st1{fill:url(#SVGID_2_);}
	.st2{fill:url(#SVGID_3_);}
	.st3{fill:url(#SVGID_4_);}
</style>
<g id="logo-th_1_">
	<g>
		<linearGradient id="SVGID_1_" gradientUnits="userSpaceOnUse" x1="54.9492" y1="43.5" x2="134.7133" y2="43.5">
			<stop  offset="0" style="stop-color:#000000"/>
			<stop  offset="0.2518" style="stop-color:#020202"/>
			<stop  offset="0.3425" style="stop-color:#090909"/>
			<stop  offset="0.4072" style="stop-color:#141414"/>
			<stop  offset="0.4595" style="stop-color:#252525"/>
			<stop  offset="0.5043" style="stop-color:#3B3B3B"/>
			<stop  offset="0.544" style="stop-color:#575757"/>
			<stop  offset="0.5798" style="stop-color:#777777"/>
			<stop  offset="0.6128" style="stop-color:#9D9D9D"/>
			<stop  offset="0.6422" style="stop-color:#C6C6C6"/>
			<stop  offset="0.6624" style="stop-color:#E7E7E7"/>
			<stop  offset="0.6728" style="stop-color:#C6C6C6"/>
			<stop  offset="0.6877" style="stop-color:#9D9D9D"/>
			<stop  offset="0.7045" style="stop-color:#777777"/>
			<stop  offset="0.7228" style="stop-color:#575757"/>
			<stop  offset="0.743" style="stop-color:#3B3B3B"/>
			<stop  offset="0.7659" style="stop-color:#252525"/>
			<stop  offset="0.7925" style="stop-color:#141414"/>
			<stop  offset="0.8255" style="stop-color:#090909"/>
			<stop  offset="0.8717" style="stop-color:#020202"/>
			<stop  offset="1" style="stop-color:#000000"/>
		</linearGradient>
		<path class="st0" d="M131.45,0c-0.4,0.76-0.67,1.27-0.81,1.53l-4.54,8.01c-1.56,2.84-3.01,6.41-4.34,10.68l-0.13,0.33l-0.67-0.47
			l-0.2-0.87c-1.29-5.07-3.12-8.59-5.51-10.54c-2.38-1.95-6.02-2.94-10.91-2.94c-2,0-4,0.09-6,0.27H98v69.05l7.71,6.95H75.86
			L85,74.55V11l-4.67-0.06c-4.53,0-7.74,0.89-9.66,2.67s-3.04,4.91-3.39,9.39h-0.78c0.5-5.23,1.84-8.87,4.05-10.92
			C72.75,10.02,76.41,9,81.5,9l3.45,1H86V6c-2.12-0.25-4.14-0.37-6.06-0.37c-5.38,0-9.25,1.1-11.62,3.28
			c-2.37,2.19-3.69,5.88-3.94,11.09h-0.75c-1.79-5.79-4.57-12.25-8.32-19.38L54.95,0H131.45z M117.7,13.95
			c-3.27-2.12-7.09-3.19-11.47-3.19c-0.97,0-2,0.06-3.23,0.19v64.02L113.56,87H81.01l-1.47-2h30.52L101,75.49V9.11l3.97-0.06
			c4.12,0,7.04,0.33,8.76,0.98C115.45,10.69,116.77,12,117.7,13.95z M134.71,4.02c-2.93,3.74-6.02,9.94-9.23,18.6l-0.26,0.64
			l-1.4-1.21l0.19-0.57c3.15-8.79,6.18-14.91,9.11-18.34l0.32-0.38L134.71,4.02z"/>
		<linearGradient id="SVGID_2_" gradientUnits="userSpaceOnUse" x1="76.6378" y1="61.2369" x2="82.6944" y2="61.2369">
			<stop  offset="0" style="stop-color:#000000"/>
			<stop  offset="0.2518" style="stop-color:#020202"/>
			<stop  offset="0.3425" style="stop-color:#090909"/>
			<stop  offset="0.4072" style="stop-color:#141414"/>
			<stop  offset="0.4595" style="stop-color:#252525"/>
			<stop  offset="0.5043" style="stop-color:#3B3B3B"/>
			<stop  offset="0.544" style="stop-color:#575757"/>
			<stop  offset="0.5798" style="stop-color:#777777"/>
			<stop  offset="0.6128" style="stop-color:#9D9D9D"/>
			<stop  offset="0.6422" style="stop-color:#C6C6C6"/>
			<stop  offset="0.6624" style="stop-color:#E7E7E7"/>
			<stop  offset="0.6728" style="stop-color:#C6C6C6"/>
			<stop  offset="0.6877" style="stop-color:#9D9D9D"/>
			<stop  offset="0.7045" style="stop-color:#777777"/>
			<stop  offset="0.7228" style="stop-color:#575757"/>
			<stop  offset="0.743" style="stop-color:#3B3B3B"/>
			<stop  offset="0.7659" style="stop-color:#252525"/>
			<stop  offset="0.7925" style="stop-color:#141414"/>
			<stop  offset="0.8255" style="stop-color:#090909"/>
			<stop  offset="0.8717" style="stop-color:#020202"/>
			<stop  offset="1" style="stop-color:#000000"/>
		</linearGradient>
		<path class="st1" d="M82.69,58.78c-2.38,0.83-4.42,2.21-6.06,4.27l1.34,0.64c1.09-1.43,2.38-2.46,3.85-3.16
			C82.05,59.92,82.34,59.34,82.69,58.78z"/>
		<linearGradient id="SVGID_3_" gradientUnits="userSpaceOnUse" x1="74.2603" y1="54" x2="147.7897" y2="54">
			<stop  offset="0" style="stop-color:#000000"/>
			<stop  offset="0.2518" style="stop-color:#020202"/>
			<stop  offset="0.3425" style="stop-color:#090909"/>
			<stop  offset="0.4072" style="stop-color:#141414"/>
			<stop  offset="0.4595" style="stop-color:#252525"/>
			<stop  offset="0.5043" style="stop-color:#3B3B3B"/>
			<stop  offset="0.544" style="stop-color:#575757"/>
			<stop  offset="0.5798" style="stop-color:#777777"/>
			<stop  offset="0.6128" style="stop-color:#9D9D9D"/>
			<stop  offset="0.6422" style="stop-color:#C6C6C6"/>
			<stop  offset="0.6624" style="stop-color:#E7E7E7"/>
			<stop  offset="0.6728" style="stop-color:#C6C6C6"/>
			<stop  offset="0.6877" style="stop-color:#9D9D9D"/>
			<stop  offset="0.7045" style="stop-color:#777777"/>
			<stop  offset="0.7228" style="stop-color:#575757"/>
			<stop  offset="0.743" style="stop-color:#3B3B3B"/>
			<stop  offset="0.7659" style="stop-color:#252525"/>
			<stop  offset="0.7925" style="stop-color:#141414"/>
			<stop  offset="0.8255" style="stop-color:#090909"/>
			<stop  offset="0.8717" style="stop-color:#020202"/>
			<stop  offset="1" style="stop-color:#000000"/>
		</linearGradient>
		<path class="st2" d="M139.31,21l8.41-8h-28.16l7.43,6.73v27.66c-3.05,0.4-6.69,0.6-10.91,0.6c-2.92,0-5.95-0.14-9.08-0.43
			L105,47.38v1.85c0,0-0.95,0.02-1.1,0.02c-0.42,0-0.9-0.08-0.9-0.08v0.24l-4-0.38v-0.08C98.68,48.98,98.35,49,98.01,49
			c-0.16,0-0.29-0.02-0.44-0.03C97.35,48.98,97.14,49,96.91,49c-1.18,0-2.23-0.21-3.16-0.57c-0.13,0.01-0.26,0.03-0.4,0.03
			c-0.34,0-0.67-0.02-0.99-0.05c-0.36,0.01-0.72,0-1.08,0.02c-0.1,0.01-0.21,0.01-0.31,0.01c-0.69,0.18-1.44,0.29-2.26,0.29
			c-0.08,0-0.17-0.01-0.25-0.01C87.72,49,86.91,49.2,86,49.25v0.23c0,0-9.23,4.71-11.74,10.83l0.95,0.64
			c2.76-3.61,6.52-5.41,11.79-5.41v0.33c0.29-0.26,1.17-0.4,2.15-0.4c0.78,0,2.17,0.54,2.17,0.54h0.57c0.73,0,1.42,0.13,2.09,0.32
			c0.28-0.03,0.55-0.05,0.85-0.05c0.08,0,0.15,0.01,0.23,0.01c0.1,0,0.19-0.01,0.3-0.01c0.75,0,1.42,0.11,2.05,0.28
			c0.55-0.01,1.07,0.05,1.58,0.18v-0.15c0.72,0.04,1.21,0.08,1.46,0.12l6.42,0.57c1.31,0.12,3.38,0.19,6.22,0.19
			c5.29,0,9.93-0.3,13.9-0.89v1.87c-3.05,1.12-6.63,1.68-10.75,1.68c-2.53,0-6.6-0.22-12.23-0.64c0.32,0.45,0.59,0.92,0.81,1.43
			c3.8,0.37,7.49,0.57,11.04,0.57c3.82,0,7.53-0.42,11.14-1.28v27.28L118.17,95h29.62L140,88.06V21H139.31z"/>
		<linearGradient id="SVGID_4_" gradientUnits="userSpaceOnUse" x1="121.1039" y1="57.6399" x2="155.7626" y2="57.6399">
			<stop  offset="0" style="stop-color:#000000"/>
			<stop  offset="0.2518" style="stop-color:#020202"/>
			<stop  offset="0.3425" style="stop-color:#090909"/>
			<stop  offset="0.4072" style="stop-color:#141414"/>
			<stop  offset="0.4595" style="stop-color:#252525"/>
			<stop  offset="0.5043" style="stop-color:#3B3B3B"/>
			<stop  offset="0.544" style="stop-color:#575757"/>
			<stop  offset="0.5798" style="stop-color:#777777"/>
			<stop  offset="0.6128" style="stop-color:#9D9D9D"/>
			<stop  offset="0.6422" style="stop-color:#C6C6C6"/>
			<stop  offset="0.6624" style="stop-color:#E7E7E7"/>
			<stop  offset="0.6728" style="stop-color:#C6C6C6"/>
			<stop  offset="0.6877" style="stop-color:#9D9D9D"/>
			<stop  offset="0.7045" style="stop-color:#777777"/>
			<stop  offset="0.7228" style="stop-color:#575757"/>
			<stop  offset="0.743" style="stop-color:#3B3B3B"/>
			<stop  offset="0.7659" style="stop-color:#252525"/>
			<stop  offset="0.7925" style="stop-color:#141414"/>
			<stop  offset="0.8255" style="stop-color:#090909"/>
			<stop  offset="0.8717" style="stop-color:#020202"/>
			<stop  offset="1" style="stop-color:#000000"/>
		</linearGradient>
		<polygon class="st3" points="145,87.9 145,22.92 151.68,16.61 150.67,15.28 143,22.28 143,88.67 152.13,98 121.1,98 122.7,100 
			155.76,100 		"/>
	</g>
</g>
</svg>
