<?xml version="1.0" encoding="utf-8"?>
<!-- Generator: Adobe Illustrator 24.1.2, SVG Export Plug-In . SVG Version: 6.00 Build 0)  -->
<svg version="1.1" id="Capa_1" xmlns="http://www.w3.org/2000/svg" xmlns:xlink="http://www.w3.org/1999/xlink" x="0px" y="0px"
	 viewBox="0 0 512 512" style="enable-background:new 0 0 512 512;" xml:space="preserve">
<style type="text/css">
	.st0{fill:#B2951D;}
</style>
<g>
	<g id="Down">
		<g>
			<path class="st0" d="M256,0C114.6,0,0,114.6,0,256s114.6,256,256,256s256-114.6,256-256S397.4,0,256,0z M256,464
				c-114.7,0-208-93.3-208-208S141.3,48,256,48s208,93.3,208,208S370.7,464,256,464z M344,192c-7,0-13.2,3-17.6,7.8l-0.1,0
				L256,276.5l-70.3-76.7l-0.1,0C181.2,195,175,192,168,192c-13.2,0-24,10.8-24,24c0,6.3,2.4,11.9,6.4,16.2l-0.1,0l88,96
				c4.6,4.9,11,7.8,17.7,7.8c6.7,0,13.1-2.8,17.7-7.8l88-96l-0.1,0c3.9-4.3,6.4-9.9,6.4-16.2C368,202.8,357.2,192,344,192z"/>
		</g>
	</g>
</g>
</svg>
